<svg width="422" height="353" viewBox="0 0 422 353" fill="none" xmlns="http://www.w3.org/2000/svg">
<path d="M147.786 104.291L202.737 230.007H4.19376L100.843 110.686L101.917 109.36L100.777 108.09L5.49179 2.00269L306.193 2.18264C337.082 4.53593 365.724 18.3712 386.924 41.0977C408.228 64.021 420 93.8594 420 125.138C420 154.98 409.214 183.742 389.619 206.213C370.382 228.236 343.865 242.796 315.017 247.11L315.009 247.111L315.001 247.112L311.53 247.66L309.889 247.919L309.842 249.579L307.012 349.543C306.938 350.324 306.4 350.83 305.686 350.967C304.978 351.104 304.319 350.838 303.979 350.103C303.978 350.101 303.977 350.1 303.977 350.098L213.184 148.968H296.77C304.552 148.968 311.834 145.175 316.318 138.698C320.814 132.204 321.791 124.026 318.923 116.311C315.603 107.359 306.789 101.49 297.135 101.49H149.618H146.561L147.786 104.291Z" fill="#500AFF" stroke="#500AFF" stroke-width="4"/>
</svg>
