<svg width="129" height="38" viewBox="0 0 129 38" fill="none" xmlns="http://www.w3.org/2000/svg">
<g clip-path="url(#clip0_4056_4020)">
<path d="M31.2408 36.8229L21.8736 15.9859H30.6925C31.4174 15.9859 32.0958 15.6314 32.5139 15.0248C32.9321 14.4183 33.025 13.6531 32.7556 12.9253C32.4489 12.0948 31.6311 11.5442 30.7297 11.5442H15.7217L21.4368 24.6734H0.5L10.6014 12.1508L0.602222 0.971802L31.659 0.990464C34.8557 1.23308 37.8202 2.67011 40.0133 5.03094C42.2157 7.41043 43.4331 10.5084 43.4331 13.7558C43.4331 16.8538 42.3179 19.8398 40.2921 22.1726C38.3034 24.4588 35.562 25.9705 32.579 26.4184L32.2259 26.4744L31.9378 36.6922C31.9099 37.0655 31.3988 37.1681 31.2408 36.8229Z" fill="#500AFF"/>
<path d="M62.1396 24.5615L58.5526 18.5334H55.3094V24.5615H50.6443V4.84431H59.8071C63.2919 4.84431 66.1077 7.68104 66.1077 11.171V11.9641C66.1077 12.9533 65.801 13.989 65.2527 14.8848C64.7137 15.762 63.9517 16.4898 63.0317 17.0031L67.5481 24.5708H62.1396V24.5615ZM59.3239 14.213C60.7643 14.213 61.9259 13.0279 61.9073 11.5815C61.8887 10.1912 60.7271 9.09008 59.3425 9.09008H55.4859V14.213H59.3239Z" fill="#500AFF"/>
<path d="M88.838 4.49905H84.3124V24.5521H88.838V4.49905Z" fill="#500AFF"/>
<path d="M95.1758 4.49905H90.6501V24.5521H95.1758V4.49905Z" fill="#500AFF"/>
<path d="M104.534 24.7108C100.231 24.7108 96.7648 21.0809 96.9972 16.7138C97.2016 12.8693 100.296 9.76194 104.125 9.55665C108.474 9.32336 112.089 12.8133 112.089 17.1244C112.089 17.5163 112.061 17.9175 111.996 18.3001L111.949 18.6081H101.225C101.374 19.3826 102.006 19.9238 102.545 20.2504C103.363 20.7449 104.311 20.9689 104.878 20.9689C105.881 20.9689 107.349 20.4277 108.093 19.4292L108.288 19.1586L111.373 21.1462L111.141 21.4541C110.332 22.5366 109.338 23.367 108.195 23.9176C107.108 24.4402 105.881 24.7108 104.534 24.7108ZM107.861 16.0606C107.684 14.3716 106.253 13.0559 104.534 13.0559C102.805 13.0559 101.383 14.3716 101.207 16.0606H107.861Z" fill="#500AFF"/>
<path d="M115.462 30.0016C114.421 30.0016 113.381 29.787 112.423 29.3764L112.07 29.2271L112.804 25.6999L115.193 25.9798C115.276 25.9892 115.369 25.9985 115.453 25.9985C116.28 25.9985 117.042 25.5413 117.432 24.8134L117.748 24.2349C117.813 24.1136 117.813 23.9736 117.757 23.8523L111.215 9.56598H116.568L120.109 18.2161L123.445 9.56598H128.509L121.493 26.3811C120.573 28.5926 118.436 30.011 116.057 30.011H115.462V30.0016Z" fill="#500AFF"/>
<path d="M73.8486 24.7108C71.9436 24.7108 70.1594 23.9176 68.8212 22.4806C67.483 21.0529 66.7489 19.1493 66.7489 17.1244C66.7489 15.0995 67.483 13.2052 68.8212 11.7682C70.1594 10.3311 71.9529 9.53798 73.8486 9.53798C75.3355 9.53798 76.7759 10.0325 77.9747 10.947V9.54731H82.5003V24.5615H77.9747V23.3017C76.7759 24.2069 75.3355 24.7108 73.8486 24.7108ZM74.6014 13.3545C72.5012 13.3545 70.8099 15.1181 70.9028 17.2457C70.9864 19.0186 72.3246 20.5023 74.0624 20.7543C75.7537 20.9969 77.3427 20.0731 78.0025 18.5427C78.0583 18.4028 78.1141 18.2535 78.1605 18.1135V18.1042C78.1698 18.0762 78.1791 18.0482 78.1791 18.0202V18.0109C78.1884 17.9829 78.1977 17.9549 78.1977 17.9269V17.9175C78.207 17.8895 78.207 17.8615 78.2163 17.8336V17.8242C78.2256 17.7962 78.2256 17.7682 78.2349 17.7402V17.7309C78.2442 17.7029 78.2442 17.6749 78.2442 17.6469V17.6376C78.2442 17.6096 78.2534 17.5816 78.2534 17.5629V17.5443C78.2534 17.5163 78.2627 17.4976 78.2627 17.4696V17.451C78.2627 17.4323 78.2627 17.4043 78.272 17.3856V17.3577C78.272 17.339 78.272 17.311 78.272 17.2923V17.255C78.272 17.2363 78.272 17.2084 78.272 17.1897V17.1617C78.272 17.1244 78.272 17.0964 78.272 17.0684C78.272 17.0404 78.272 17.0031 78.272 16.9751V16.9471C78.272 16.9191 78.272 16.9004 78.272 16.8818V16.8444C78.272 16.8258 78.272 16.7978 78.272 16.7791V16.7511C78.272 16.7231 78.272 16.7045 78.2627 16.6765V16.6578C78.2627 16.6298 78.2534 16.6111 78.2534 16.5832V16.5645C78.2534 16.5365 78.2442 16.5178 78.2442 16.4898V16.4712C78.2442 16.4432 78.2349 16.4245 78.2349 16.3965V16.3872C78.2256 16.3592 78.2256 16.3312 78.2163 16.3032V16.2939C78.207 16.2659 78.207 16.2379 78.1977 16.2099V16.2006C78.1884 16.1726 78.1884 16.1446 78.1791 16.1166V16.1073C78.1698 16.0793 78.1605 16.0513 78.1605 16.0233V16.0139C78.1141 15.8646 78.0676 15.7247 78.0025 15.5847C77.4171 14.2317 76.0882 13.3545 74.6014 13.3545Z" fill="#500AFF"/>
</g>
<defs>
<clipPath id="clip0_4056_4020">
<rect width="128" height="36.0563" fill="white" transform="translate(0.5 0.971802)"/>
</clipPath>
</defs>
</svg>
